<svg width="147" height="71" viewBox="0 0 147 71" fill="none" xmlns="http://www.w3.org/2000/svg">
<path d="M2.44899 68.0326C2.77863 69.2032 5.77374 68.9448 7.31417 68.3502C17.3822 64.4643 21.5151 56.8375 24.7715 51.3922C28.614 44.9667 30.1651 36.9885 25.0577 30.6235C22.3474 27.246 10.3575 23.1369 5.09622 27.9242C-1.72188 34.1281 4.05787 41.9026 9.60362 47.8355C14.2223 52.7766 23.1302 61.6039 36.7913 62.507C50.9088 63.4403 54.5244 58.5929 55.7511 53.3294C56.6476 49.4827 56.3987 45.6537 55.8942 41.8018C55.6546 39.9729 53.1568 35.1465 55.5365 33.4181C57.1236 32.2653 59.1439 35.6176 60.4016 36.8478C63.2091 39.5939 65.7903 42.5897 70.9905 44.6599C81.4402 48.8199 90.2289 44.9572 92.3113 40.087C93.4568 37.408 93.5846 34.7081 92.5975 32.0208C92.4321 31.5706 90.4801 28.8301 91.3097 28.4006C91.9027 28.0935 92.6111 28.9683 93.313 29.2262C95.4859 30.025 97.8579 30.767 100.611 31.1316C108.091 32.1223 114.472 30.3944 116.852 27.2256C122.124 20.2045 120.266 10.6399 108.266 5.15485C103.15 2.81624 93.3856 0.454408 86.9453 3.31296C80.7887 6.04563 82.7514 10.8234 84.5843 14.1102C90.0616 23.9321 101.384 32.9941 113.775 41.389C117.559 43.9525 122.16 48.299 128.657 49.7409" stroke="black" stroke-width="2.42658" stroke-linecap="round"/>
<path d="M120.929 53.7422C125.213 55.4973 131.21 57.1719 137.242 57.1719C148.255 57.1719 145.042 51.6317 144.11 48.5977" stroke="black" stroke-width="2.42658" stroke-linecap="round"/>
</svg>
